<svg width="137" height="224" viewBox="0 0 137 224" fill="none" xmlns="http://www.w3.org/2000/svg">
<path d="M42.6399 90.3158C45.8742 90.3158 48.9288 89.5252 51.8037 87.944C54.7505 86.3627 57.0864 84.2065 58.8114 81.4754L64.4175 85.0331C62.1176 88.6986 58.9911 91.6095 55.038 93.7657C51.085 95.9219 46.9163 97 42.5321 97C38.5072 96.9281 34.8776 96.1375 31.6433 94.6282C28.4808 93.047 25.7856 91.0345 23.5575 88.5908C21.3294 86.1471 19.6045 83.4159 18.3826 80.3973C17.2327 77.3067 16.6577 74.2162 16.6577 71.1256C16.6577 67.6038 17.3405 64.2976 18.7061 61.2071C20.0717 58.0447 21.9044 55.3135 24.2044 53.0135C26.5762 50.6417 29.3433 48.773 32.5057 47.4074C35.6682 46.0418 39.0103 45.3231 42.5321 45.2512C47.2757 45.2512 51.6959 46.473 55.7927 48.9167C59.9614 51.3604 63.0878 54.5947 65.1722 58.6196L66.5737 61.3149L29.0558 84.8175C30.7089 86.3987 32.6136 87.6924 34.7698 88.6986C36.9978 89.7049 39.6212 90.2439 42.6399 90.3158ZM23.3419 71.1256C23.3419 73.7849 23.9888 76.5161 25.2825 79.3192L57.6255 59.1587C55.9005 56.9306 53.6724 55.1697 50.9413 53.876C48.2819 52.5823 45.4789 51.9354 42.5321 51.9354C39.8728 51.9354 37.3572 52.4745 34.9854 53.5526C32.6854 54.5588 30.673 55.9244 28.948 57.6493C27.2231 59.3743 25.8575 61.4227 24.8512 63.7945C23.845 66.0945 23.3419 68.5382 23.3419 71.1256ZM119.913 97H113.228V71.1256C113.228 68.4663 112.689 65.9867 111.611 63.6867C110.605 61.3149 109.24 59.2665 107.515 57.5415C105.79 55.7447 103.741 54.3432 101.369 53.3369C99.0694 52.3307 96.6257 51.8276 94.0383 51.8276C92.0977 51.8276 90.0134 52.2229 87.7853 53.0135C85.5572 53.7323 83.4729 54.9182 81.5323 56.5712C79.6636 58.1525 78.0824 60.1649 76.7887 62.6086C75.5668 64.9804 74.92 67.8554 74.8481 71.2334V97H68.1639V71.1256C68.2358 67.0288 69.0264 63.3992 70.5357 60.2368C72.1169 57.0025 74.1294 54.3072 76.5731 52.151C79.0168 49.923 81.748 48.2339 84.7666 47.084C87.8572 45.8621 90.9477 45.2512 94.0383 45.2512C97.5601 45.2512 100.866 45.934 103.957 47.2996C107.119 48.6652 109.85 50.5339 112.15 52.9057C114.522 55.2057 116.391 57.9368 117.756 61.0993C119.122 64.1898 119.841 67.5319 119.913 71.1256V97Z" fill="#9600F1"/>
<path d="M69.1137 118.215H61.8716V146.249C61.8716 149.131 61.2876 151.817 60.1195 154.309C59.0293 156.879 57.5497 159.098 55.6808 160.967C53.8118 162.914 51.5925 164.432 49.0227 165.523C46.5308 166.613 43.8831 167.158 41.0798 167.158C38.9772 167.158 36.7189 166.73 34.3049 165.873C31.8908 165.094 29.6326 163.809 27.53 162.018C25.5053 160.305 23.7921 158.125 22.3905 155.477C21.0666 152.907 20.3658 149.792 20.2879 146.132V118.215H13.0458V146.249C13.1237 150.688 13.9803 154.621 15.6156 158.047C17.3288 161.551 19.5092 164.471 22.1568 166.808C24.8045 169.222 27.7636 171.052 31.0343 172.297C34.3828 173.621 37.7313 174.283 41.0798 174.283C44.8955 174.283 48.4776 173.543 51.8261 172.064C55.2525 170.584 58.2116 168.56 60.7035 165.99C63.2733 163.498 65.298 160.539 66.7775 157.112C68.2571 153.764 69.0358 150.143 69.1137 146.249V118.215ZM99.8041 125.457C103.308 125.457 106.618 126.314 109.733 128.027C112.926 129.74 115.456 132.077 117.325 135.036L123.399 131.181C120.907 127.21 117.52 124.056 113.237 121.72C108.954 119.383 104.438 118.215 99.6873 118.215C95.3265 118.293 91.3939 119.15 87.8897 120.785C84.4633 122.498 81.5431 124.679 79.1291 127.326C76.715 129.974 74.8461 132.933 73.5223 136.204C72.2763 139.552 71.6534 142.901 71.6534 146.249C71.6534 150.065 72.3931 153.647 73.8727 156.996C75.3523 160.422 77.338 163.381 79.8299 165.873C82.3997 168.443 85.3978 170.467 88.8242 171.947C92.2505 173.427 95.8716 174.205 99.6873 174.283C104.827 174.283 109.616 172.959 114.055 170.312C118.571 167.664 121.959 164.16 124.217 159.799L125.736 156.879L85.0863 131.415C86.8774 129.701 88.941 128.3 91.2771 127.21C93.6912 126.119 96.5335 125.535 99.8041 125.457ZM78.8955 146.249C78.8955 143.368 79.5963 140.409 80.998 137.372L116.04 159.215C114.172 161.629 111.757 163.537 108.798 164.939C105.917 166.34 102.88 167.041 99.6873 167.041C96.806 167.041 94.0805 166.457 91.5107 165.289C89.0188 164.199 86.8384 162.719 84.9695 160.85C83.1006 158.981 81.621 156.762 80.5308 154.192C79.4406 151.7 78.8955 149.053 78.8955 146.249Z" fill="black"/>
</svg>
